<?xml version="1.0" standalone="no"?>
<!DOCTYPE svg PUBLIC "-//W3C//DTD SVG 20010904//EN"
 "http://www.w3.org/TR/2001/REC-SVG-20010904/DTD/svg10.dtd">
<svg version="1.0" xmlns="http://www.w3.org/2000/svg"
 width="30.000000pt" height="30.000000pt" viewBox="0 0 30.000000 30.000000"
 preserveAspectRatio="xMidYMid meet">

<g transform="translate(0.000000,30.000000) scale(0.100000,-0.100000)"
fill="#000000" stroke="none">
<path d="M30 230 c0 -16 7 -20 35 -20 28 0 35 4 35 20 0 16 -7 20 -35 20 -28
0 -35 -4 -35 -20z"/>
<path d="M200 210 c0 -16 7 -20 30 -20 23 0 30 4 30 20 0 16 -7 20 -30 20 -23
0 -30 -4 -30 -20z"/>
<path d="M0 150 c0 -38 4 -50 15 -50 9 0 18 7 21 15 4 8 14 15 24 15 10 0 23
-7 30 -15 13 -16 75 -21 84 -6 3 4 24 11 46 15 31 5 40 11 40 26 0 15 -9 21
-40 26 -22 4 -43 11 -46 15 -9 15 -71 10 -84 -6 -7 -8 -20 -15 -30 -15 -10 0
-20 7 -24 15 -3 8 -12 15 -21 15 -11 0 -15 -12 -15 -50z m165 0 c0 -9 -11 -16
-27 -18 -23 -3 -28 1 -28 18 0 17 5 21 28 18 16 -2 27 -9 27 -18z"/>
<path d="M280 150 c0 -27 5 -50 10 -50 6 0 10 23 10 50 0 28 -4 50 -10 50 -5
0 -10 -22 -10 -50z"/>
<path d="M200 90 c0 -16 7 -20 30 -20 23 0 30 4 30 20 0 16 -7 20 -30 20 -23
0 -30 -4 -30 -20z"/>
<path d="M30 70 c0 -16 7 -20 35 -20 28 0 35 4 35 20 0 16 -7 20 -35 20 -28 0
-35 -4 -35 -20z"/>
</g>
</svg>
