<?xml version="1.0" standalone="no"?>
<!DOCTYPE svg PUBLIC "-//W3C//DTD SVG 20010904//EN"
 "http://www.w3.org/TR/2001/REC-SVG-20010904/DTD/svg10.dtd">
<svg version="1.0" xmlns="http://www.w3.org/2000/svg"
 width="30.000000pt" height="30.000000pt" viewBox="0 0 30.000000 30.000000"
 preserveAspectRatio="xMidYMid meet">

<g transform="translate(0.000000,30.000000) scale(0.100000,-0.100000)"
fill="#000000" stroke="none">
<path d="M182 277 c-28 -30 -28 -68 1 -95 30 -28 68 -28 95 1 28 30 28 68 -1
95 -30 28 -68 28 -95 -1z m58 -37 c0 -16 -4 -30 -10 -30 -5 0 -10 14 -10 30 0
17 5 30 10 30 6 0 10 -13 10 -30z m0 -50 c0 -5 -4 -10 -10 -10 -5 0 -10 5 -10
10 0 6 5 10 10 10 6 0 10 -4 10 -10z"/>
<path d="M30 236 c0 -2 27 -27 60 -56 50 -43 63 -50 75 -40 13 11 12 15 -5 37
-11 14 -20 34 -20 44 0 16 -8 19 -55 19 -30 0 -55 -2 -55 -4z"/>
<path d="M10 148 l0 -72 40 39 c22 21 40 40 40 40 0 1 -18 16 -40 34 l-40 32
0 -73z"/>
<path d="M257 146 l-27 -12 30 -29 30 -29 0 42 c0 23 -1 42 -2 41 -2 0 -15 -6
-31 -13z"/>
<path d="M65 100 l-39 -40 124 0 124 0 -39 40 c-35 36 -40 38 -55 25 -9 -8
-23 -15 -30 -15 -7 0 -21 7 -30 15 -15 13 -20 11 -55 -25z"/>
</g>
</svg>
